<svg version="1.1" xmlns="http://www.w3.org/2000/svg" xmlns:xlink="http://www.w3.org/1999/xlink" width="225.000000pt" height="225.000000pt" viewBox="0,0,256,256"><g fill="#ff9900" fill-rule="nonzero" stroke="none" stroke-width="1" stroke-linecap="butt" stroke-linejoin="miter" stroke-miterlimit="10" stroke-dasharray="" stroke-dashoffset="0" font-family="none" font-weight="none" font-size="none" text-anchor="none" style="mix-blend-mode: normal"><g transform="scale(1.13778,1.13778)"><g transform="translate(0,225) scale(0.1,-0.1)"><path d="M0,1125v-1125h1125h1125v1125v1125h-1125h-1125zM1059,1850c110,-21 225,-98 290,-196c16,-25 31,-50 33,-55c2,-5 21,0 43,11c53,27 119,26 170,-3c50,-28 103,-98 111,-146c6,-35 10,-39 63,-57c80,-27 163,-109 185,-183c31,-105 11,-226 -49,-293c-29,-33 -41,-35 -55,-9c-8,16 -5,28 15,57c34,50 48,109 42,170c-11,106 -75,179 -186,211c-61,17 -71,26 -71,63c-1,43 -37,108 -72,130c-48,31 -116,23 -162,-18c-20,-17 -42,-29 -49,-26c-7,2 -26,32 -42,66c-38,79 -107,148 -191,189c-57,28 -76,33 -147,33c-100,1 -168,-20 -235,-74c-86,-67 -142,-184 -142,-294v-51l-73,-35c-54,-26 -79,-46 -102,-78c-28,-41 -30,-50 -30,-136c0,-86 2,-96 30,-142c17,-28 52,-63 79,-81l48,-33h159h159v-30v-30h-162c-143,0 -167,2 -205,21c-59,29 -137,117 -158,179c-25,75 -23,173 5,238c25,59 101,134 154,153c32,12 34,15 39,75c6,83 52,179 116,247c103,109 244,155 390,127zM1483,1234c92,-32 183,-121 218,-213c27,-69 30,-188 6,-243l-16,-37l105,-92c115,-101 124,-113 124,-159c0,-42 -15,-67 -52,-86c-52,-27 -84,-13 -201,91l-107,94l-57,-27c-50,-23 -71,-27 -148,-27c-82,0 -97,3 -157,33c-84,41 -158,120 -188,200c-29,78 -26,205 8,274c51,103 163,189 270,208c56,10 142,2 195,-16z"></path><path d="M1290,1186c-70,-15 -105,-34 -153,-83c-66,-65 -82,-105 -82,-208c0,-81 3,-95 30,-144c102,-185 364,-214 504,-55c49,56 71,118 71,203c0,190 -179,328 -370,287zM1467,1118c126,-59 179,-216 115,-339c-47,-90 -154,-147 -254,-136c-171,21 -275,200 -204,352c60,131 211,185 343,123z"></path><path d="M1248,1051c-80,-51 -109,-149 -69,-236c42,-94 154,-139 249,-100c115,48 156,182 89,284c-56,84 -180,108 -269,52z"></path><path d="M1648,672c-41,-50 -44,-43 61,-135c55,-48 106,-87 114,-87c20,0 39,25 35,47c-2,11 -46,58 -99,106c-89,79 -98,85 -111,69z"></path></g></g></g></svg>