<svg version="1.1" xmlns="http://www.w3.org/2000/svg" xmlns:xlink="http://www.w3.org/1999/xlink" width="225" height="225" viewBox="0,0,256,256"><g fill="none" fill-rule="evenodd" stroke="none" stroke-width="1" stroke-linecap="butt" stroke-linejoin="miter" stroke-miterlimit="10" stroke-dasharray="" stroke-dashoffset="0" font-family="none" font-weight="none" font-size="none" text-anchor="none" style="mix-blend-mode: normal"><g transform="translate(-0.57401,-0.00512) scale(1.13778,1.13778)"><path d="M40.306,59.413l-2.806,2.413l-0.278,48.812c-0.202,35.463 0.041,49.582 0.888,51.627c2.486,6.002 -0.99,5.735 74.557,5.735h69.221l2.806,-2.413l2.806,-2.414v-50.673v-50.673l-2.806,-2.414l-2.806,-2.413h-69.388h-69.388l-2.806,2.413M44.461,64.243c-0.265,0.691 -0.365,22.857 -0.221,49.257l0.26,48h68h68v-49v-49l-67.779,-0.257c-53.691,-0.204 -67.879,0.004 -68.26,1M71.5,73.146c-9.634,3.563 -13.445,10.097 -13.478,23.104l-0.022,8.75h-3.3c-1.815,0 -3.84,0.54 -4.5,1.2c-1.548,1.548 -1.697,42.003 -0.165,44.866c0.986,1.842 2.381,1.934 29.465,1.934c27.084,0 28.479,-0.092 29.465,-1.934c1.381,-2.581 1.381,-41.551 0,-44.132c-0.718,-1.341 -2.098,-1.934 -4.5,-1.934h-3.465v-8.788c0,-10.694 -2.3,-16.157 -8.661,-20.576c-3.388,-2.353 -5.433,-2.956 -11,-3.245c-3.762,-0.195 -8.189,0.144 -9.839,0.755M73.445,79.068c-1.68,0.489 -4.155,2.057 -5.5,3.486c-2.162,2.298 -2.503,3.747 -2.945,12.524l-0.5,9.926l14.75,-0.002l14.75,-0.002v-9.423c0,-8.656 -0.209,-9.672 -2.564,-12.471c-3.786,-4.499 -10.905,-6.097 -17.991,-4.038M121,99v3h15.5h15.5v-3v-3h-15.5h-15.5v3M163,99c0,2.762 0.278,3 3.5,3c3.222,0 3.5,-0.238 3.5,-3c0,-2.762 -0.278,-3 -3.5,-3c-3.222,0 -3.5,0.238 -3.5,3M56,129v18h23.75h23.75v-4.5v-4.5h-4.75c-4.611,0 -4.75,-0.088 -4.75,-3c0,-2.912 0.139,-3 4.75,-3c4.611,0 4.75,-0.088 4.75,-3c0,-2.912 -0.139,-3 -4.75,-3c-4.611,0 -4.75,-0.088 -4.75,-3c0,-2.889 0.167,-3 4.5,-3h4.5v-4.5v-4.5h-23.5h-23.5v18M121,114v3h11h11v-3v-3h-11h-11v3M154,114v3h8h8v-3v-3h-8h-8v3M73.455,118.455c-3.447,3.446 -3.343,8.748 0.24,12.331c2.125,2.125 2.638,3.49 2.424,6.454c-0.267,3.696 -0.211,3.76 3.305,3.76c3.499,0 3.576,-0.086 3.576,-3.955c0,-2.884 0.676,-4.63 2.5,-6.454c3.385,-3.386 3.406,-8.776 0.045,-12.136c-1.694,-1.695 -3.566,-2.455 -6.045,-2.455c-2.479,0 -4.351,0.76 -6.045,2.455M76.41,122.375c-1.199,3.123 0.014,5.125 3.104,5.125c2.651,0 2.986,-0.336 2.986,-3c0,-2.531 -0.431,-3.05 -2.756,-3.317c-1.758,-0.202 -2.965,0.229 -3.334,1.192M121,129v3.042l19.75,-0.271l19.75,-0.271v-2.5v-2.5l-19.75,-0.271l-19.75,-0.271v3.042" fill="#ffffff"></path><path d="M0,112.504v112.505l112.75,-0.255l112.75,-0.254l0.254,-112.25l0.255,-112.25h-113.005h-113.004v112.504M0.483,113c0,61.875 0.12,87.188 0.267,56.25c0.147,-30.937 0.147,-81.562 0,-112.5c-0.147,-30.937 -0.267,-5.625 -0.267,56.25M40.306,59.413l-2.806,2.413l-0.278,48.812c-0.202,35.463 0.041,49.582 0.888,51.627c2.486,6.002 -0.99,5.735 74.557,5.735h69.221l2.806,-2.413l2.806,-2.414v-50.673v-50.673l-2.806,-2.414l-2.806,-2.413h-69.388h-69.388l-2.806,2.413M44.461,64.243c-0.265,0.691 -0.365,22.857 -0.221,49.257l0.26,48h68h68v-49v-49l-67.779,-0.257c-53.691,-0.204 -67.879,0.004 -68.26,1M71.5,73.146c-9.634,3.563 -13.445,10.097 -13.478,23.104l-0.022,8.75h-3.3c-1.815,0 -3.84,0.54 -4.5,1.2c-1.548,1.548 -1.697,42.003 -0.165,44.866c0.986,1.842 2.381,1.934 29.465,1.934c27.084,0 28.479,-0.092 29.465,-1.934c1.381,-2.581 1.381,-41.551 0,-44.132c-0.718,-1.341 -2.098,-1.934 -4.5,-1.934h-3.465v-8.788c0,-10.694 -2.3,-16.157 -8.661,-20.576c-3.388,-2.353 -5.433,-2.956 -11,-3.245c-3.762,-0.195 -8.189,0.144 -9.839,0.755M73.445,79.068c-1.68,0.489 -4.155,2.057 -5.5,3.486c-2.162,2.298 -2.503,3.747 -2.945,12.524l-0.5,9.926l14.75,-0.002l14.75,-0.002v-9.423c0,-8.656 -0.209,-9.672 -2.564,-12.471c-3.786,-4.499 -10.905,-6.097 -17.991,-4.038M121,99v3h15.5h15.5v-3v-3h-15.5h-15.5v3M163,99c0,2.762 0.278,3 3.5,3c3.222,0 3.5,-0.238 3.5,-3c0,-2.762 -0.278,-3 -3.5,-3c-3.222,0 -3.5,0.238 -3.5,3M56,129v18h23.75h23.75v-4.5v-4.5h-4.75c-4.611,0 -4.75,-0.088 -4.75,-3c0,-2.912 0.139,-3 4.75,-3c4.611,0 4.75,-0.088 4.75,-3c0,-2.912 -0.139,-3 -4.75,-3c-4.611,0 -4.75,-0.088 -4.75,-3c0,-2.889 0.167,-3 4.5,-3h4.5v-4.5v-4.5h-23.5h-23.5v18M121,114v3h11h11v-3v-3h-11h-11v3M154,114v3h8h8v-3v-3h-8h-8v3M73.455,118.455c-3.447,3.446 -3.343,8.748 0.24,12.331c2.125,2.125 2.638,3.49 2.424,6.454c-0.267,3.696 -0.211,3.76 3.305,3.76c3.499,0 3.576,-0.086 3.576,-3.955c0,-2.884 0.676,-4.63 2.5,-6.454c3.385,-3.386 3.406,-8.776 0.045,-12.136c-1.694,-1.695 -3.566,-2.455 -6.045,-2.455c-2.479,0 -4.351,0.76 -6.045,2.455M76.41,122.375c-1.199,3.123 0.014,5.125 3.104,5.125c2.651,0 2.986,-0.336 2.986,-3c0,-2.531 -0.431,-3.05 -2.756,-3.317c-1.758,-0.202 -2.965,0.229 -3.334,1.192M121,129v3.042l19.75,-0.271l19.75,-0.271v-2.5v-2.5l-19.75,-0.271l-19.75,-0.271v3.042" fill="#ff9900"></path></g></g></svg>